<?xml version="1.0" encoding="UTF-8"?><svg xmlns="http://www.w3.org/2000/svg" viewBox="0 0 214.65 214.65"><defs><style>.d{fill:#ff9046;}</style></defs><g id="a"/><g id="b"><g id="c"><g><path class="d" d="M170.39,0H44.26C19.82,0,0,19.82,0,44.26v126.14c0,24.44,19.82,44.26,44.26,44.26h126.14c24.44,0,44.26-19.82,44.26-44.26V44.26c0-24.44-19.82-44.26-44.26-44.26Zm12.05,145.71c0,20.25-16.48,36.73-36.73,36.73H68.94c-20.25,0-36.73-16.48-36.73-36.73V68.94c0-20.25,16.48-36.73,36.73-36.73h76.78c20.25,0,36.73,16.48,36.73,36.73v76.78Z"/><path class="d" d="M145.72,45.59H68.94c-12.87,0-23.35,10.47-23.35,23.35v76.78c0,12.87,10.47,23.35,23.35,23.35h76.78c12.87,0,23.35-10.47,23.35-23.35V68.94c0-12.87-10.47-23.35-23.35-23.35Zm-38.66,99.02c-20.41,0-37.01-16.6-37.01-37.01s16.6-37.01,37.01-37.01,37.01,16.6,37.01,37.01-16.6,37.01-37.01,37.01Zm41.19-69.67c-4.71,0-8.53-3.82-8.53-8.53s3.82-8.53,8.53-8.53,8.53,3.82,8.53,8.53-3.82,8.53-8.53,8.53Z"/><path class="d" d="M107.05,81.31c-14.5,0-26.3,11.8-26.3,26.3s11.8,26.3,26.3,26.3,26.3-11.8,26.3-26.3-11.8-26.3-26.3-26.3Z"/></g></g></g></svg>