<?xml version="1.0" encoding="UTF-8"?><svg xmlns="http://www.w3.org/2000/svg" viewBox="0 0 214.65 214.65"><defs><style>.d{fill:#ff9046;}</style></defs><g id="a"/><g id="b"><g id="c"><path class="d" d="M154.98,0H59.67C26.72,0,0,26.72,0,59.67v95.31c0,32.96,26.72,59.67,59.67,59.67h95.31c32.96,0,59.67-26.72,59.67-59.67V59.67C214.65,26.72,187.94,0,154.98,0ZM71.56,165.59h-28.94V80.75h28.94v84.84Zm-13.88-92.38c-8.76,0-15.86-7.1-15.86-15.86s7.1-15.86,15.86-15.86,15.86,7.1,15.86,15.86-7.1,15.86-15.86,15.86Zm113.29,92.38h-27.84l-.11-39.84s2.08-24.09-11.6-24.09-16.65,11.2-16.65,11.2v52.73h-28.94V80.75h28.94v12.29s2.38-13.53,27.06-13.53c26.46,0,29.14,30.33,29.14,30.33v55.75Z"/></g></g></svg>