<?xml version="1.0" encoding="UTF-8"?><svg xmlns="http://www.w3.org/2000/svg" viewBox="0 0 214.65 214.65"><defs><style>.d{fill:#ff9046;}</style></defs><g id="a"/><g id="b"><g id="c"><path class="d" d="M155.24,0H59.41C26.6,0,0,26.6,0,59.41v95.84c0,32.81,26.6,59.41,59.41,59.41h95.84c32.81,0,59.41-26.6,59.41-59.41V59.41C214.65,26.6,188.06,0,155.24,0Zm3.97,77.77c.01,.32,.05,.64,.05,.97,0,1.45-.15,2.85-.37,4.24,.52,9.66,.31,37.26-17.33,53.22-5.68,6.71-13.31,12.91-23.61,17.61-42.78,19.47-77.77-4.79-77.77-4.79,0,0,16.98-2.9,38.63-10.12-16.23-7.15-24.58-20.5-24.58-20.5,0,0,4.87,.86,12.62,1.5-15.98-11.31-21.12-28.38-21.12-28.38,0,0,3.19,1.52,8.59,3.62-10.54-18.69-5.58-38.8-5.58-38.8,0,0,3.4,4.82,9.38,11.57,.41,.29,1.04,.74,1.87,1.31,7.45,4.68,19.67,11.58,33.95,16.67,.16,.01,8.28,.73,12.41,0,.01,0,.02,0,.03,0-.63-2.28-.99-4.67-.99-7.15,0-14.88,12.06-26.94,26.94-26.94,8.32,0,15.75,3.77,20.69,9.7,6.12-1.38,12.35-3.75,16.76-7.77,0,0-1.75,11.07-12.42,15.08,.09,.22,.17,.45,.25,.68,5.18-.51,10.37-1.84,14.63-4.6,0,0-3.58,9.73-13.01,12.88Z"/></g></g></svg>